<?xml version="1.0" encoding="UTF-8"?>
<svg id="_Слой_1" data-name="Слой 1" xmlns="http://www.w3.org/2000/svg" viewBox="0 0 1709.06 501.88">
  <path d="M1561.93,479.4c-45.1,15.04-99.65,21.58-147.37,22.4-39.78.69-78.03-3-117.29-8.23-54.66-8.76-111.48-24.75-158.29-54.42l67.55-90.87c42.21,25.67,98.08,37.28,147.85,42.31,47.24,4.77,93.82,4.07,139.8-6.97,19.02-4.57,45.56-16.89,42.64-39.34-2.42-18.6-30.26-26.22-47.05-29.96-66.52-14.8-119.46-15.58-187.04-38.88-44.93-15.5-88.86-43.03-96.56-93.87-5.95-39.26,6.96-78.06,33.86-107.04,41.19-44.38,100.23-59.26,158.48-68.31,62.63-6.23,124.8-5.63,187.21,3.09,42.44,6.62,82.69,15.57,123.33,32.21l-67.35,96.37c-23.5-8.59-46.69-14.94-71.43-19.14-43.7-8.44-87.04-11.2-131.54-8.83-24.97,1.32-85.24,7.5-82.39,41.56,1.61,19.19,32.48,29.66,48.29,32.31l67.66,11.35c75.97,12.74,213.24,31.35,215.68,132.68,1.09,45.32-18.79,86.06-54.08,113.92-21.66,17.1-45.61,28.89-71.99,37.69Z"/>
  <path d="M799.96,230.47l73.55-2.86,39.7-1.05-26.87-1.09c-4.66-.61-9.32-.82-14.2-.59l-70.58-2.31,15.11-76.62,76.63-2.01c7.71.14,15.09-.15,22.53-1.06l27.01-1.1-48.16-.97-76.27-1.9,4.52-25.3-141.16-.56-59.37-.54c-1.49-1.02-.68-8.36,2.39-8.45l175.3-4.86,67.97-.99-66.49-1.07-93.13-2.48-83.36-2.71,5.72-28.55,136.34-2.11,71.08-1.57,46.78-.89-29.64-1.39-17.17-.73-142.27-3.51-63.17-1.58,6.43-31.91,118.6-2.33c23.89-2.26,46.66,2.83,70.45-2.52l-187.41-3.42,2.35-11.44,554.19,1.61-21.52,113.65-213.07-.2-16.31,83.4-19.48,101.93-37.94,200.55-141.33-.52,2.03-11.85,71.64-2.83,55.13-.8c-7.71-.81-15.24-1.67-22.64-1.88l-102.57-2.94,6.6-34.49,74.66-1.96,36.94-1.25-109.92-4.78,6.24-33.65,117.93-2.12c-6.82-3.87-14.77-1.96-22.9-2.29l-93.16-3.72,7.15-36.56,41.66-1.65,31.85-1.35-72.49-2.62,7.37-38.39,132.82-3.85c-7.4-.9-14.09-1.61-21.2-1.82l-109.61-3.33,6.39-35.49,87.69-1.44c5.5-.09,11.86-1.38,16.99-2.31-34.99-.36-68.16.06-102.84-3.04l6.52-33.54Z"/>
  <path d="M202.92,89.95l-105.06-3.2-2.79-.11c-.47-.02,2.11-2.04,2.82-2.06l46.91-1.18,443.92-9.46-33.53,25.28-176.32-4.62-175.95-4.64Z"/>
  <path d="M102.58,411.89l-38.13-1.53c-5.64-.23-11.51-1.03-17.62-1.79l39.28-.91,313.93-5.68,117.81-1.97,17.45,25.98-118.61-3.68-205.88-6.68-108.22-3.73Z"/>
  <path d="M279.08,51.85l-121.17-3.25c3.95-2.66,11.27-6.67,16.04-7.32l56.81-.55,310.61-7.32c16.37,6.99,41.27,15.19,54.91,26.92l-158.62-4.06-158.58-4.42Z"/>
  <path d="M150.94,453.92c-18.86-.67-34.4-1.31-52.05-5.28l87.56-1.73,344.91-6.29c-13.45,10.99-28.25,18.65-44.18,25.23l-336.24-11.92Z"/>
  <path d="M503.68,19.07l-241.18-6.59c35.74-9.02,70.81-9.38,106.81-10.7,31.9-.19,62.25,1.36,93.56,6.27,14,3.35,27.53,5.6,40.81,11.02Z"/>
  <path d="M503.96,383.58l-117.9-3.47c25.48-6.21,49.39-12.87,72.94-22.93l26.08.52,18.89,25.88Z"/>
  <path d="M238.45,377.17l-189.99-6.53c-11.09-.38-21.22-.85-31.55-3.06l188.93-5.32,32.6,14.91Z"/>
  <path d="M79.95,127.18c-9.35-.29-16.54.67-23.92-2.24l52.56-1.47,152.47-3.94-29.73,12.28-151.38-4.63Z"/>
  <path d="M384.71,496.23l-67.58,4.74c-43.51-1.45-86.51-3.03-128.63-12.3l210.52,5.47-14.31,2.09Z"/>
  <path d="M23.75,329.2c-6.95-.27-11.93-.29-17.22-2.21l40.5-1.47,113.14-3.08,9.03,12.47-145.46-5.71Z"/>
  <path d="M517.29,140.32c-7.26-2.52-13.64-5.12-20.36-8.23-13.52-6.26-26.69-10.76-41.02-15.6l83.62-1.83c-7,9.37-13.51,16.35-22.24,25.67Z"/>
  <path d="M59.17,167.74l-27.15-.92c7.12-2.18,13.8-2.01,21.75-2.23l133.48-3.54-9.66,11.33-118.42-4.65Z"/>
  <polygon points="151.59 212.43 30.51 206.89 13.36 205.17 156.91 200.25 151.59 212.43"/>
  <path d="M29.65,287.77c-4.83-.2-10.17.2-14.54-.35l-15.1-1.91,35.04-.95,108.01-3.29,2.55,11.22-115.95-4.71Z"/>
  <path d="M87.79,249.8l-71.24-2.76c-4.31-.17-9.24-.96-13.83-1.64l40.25-1.38,100.16-3.23-1.32,11.14-54.02-2.13Z"/>
</svg>